name C:/MyDriveSym/Projects/mobilecap/Data\Session20210903_0002\mocap\ForceDataProcessed\walkingTS1_forces.mot
datacolumns 19
datarows 14
range 0.73450000 0.74100000
endheader 
time	R_ground_force_vx	R_ground_force_vy	R_ground_force_vz	R_ground_force_px	R_ground_force_py	R_ground_force_pz	R_ground_torque_x	R_ground_torque_y	R_ground_torque_z	L_ground_force_vx	L_ground_force_vy	L_ground_force_vz	L_ground_force_px	L_ground_force_py	L_ground_force_pz	L_ground_torque_x	L_ground_torque_y	L_ground_torque_z	
          0.73450000	         21.37745400	         53.13607200	          0.96818600	          0.27648600	          0.00600000	         -0.14351900	          0.00000000	         -0.09393500	          0.00000000	       -111.36316800	        606.68876400	         31.15230700	          0.81201000	          0.00600000	         -0.30379400	          0.00000000	         -0.31834300	          0.00000000	
          0.73500000	         21.05033600	         52.15310300	          0.99261700	          0.27684900	          0.00600000	         -0.14347400	          0.00000000	         -0.09128700	          0.00000000	       -111.18428800	        606.77929100	         31.32874300	          0.81211300	          0.00600000	         -0.30384700	          0.00000000	         -0.32522200	          0.00000000	
          0.73550000	         20.72566400	         51.17914800	          1.01654600	          0.27721900	          0.00600000	         -0.14342700	          0.00000000	         -0.08866700	          0.00000000	       -111.00175300	        606.85601900	         31.50361900	          0.81221700	          0.00600000	         -0.30390000	          0.00000000	         -0.33212000	          0.00000000	
          0.73600000	         20.40344700	         50.21419700	          1.03998000	          0.27759700	          0.00600000	         -0.14337900	          0.00000000	         -0.08607600	          0.00000000	       -110.81560800	        606.91909300	         31.67691300	          0.81232100	          0.00600000	         -0.30395200	          0.00000000	         -0.33903500	          0.00000000	
          0.73650000	         20.08369300	         49.25824100	          1.06292300	          0.27798400	          0.00600000	         -0.14333000	          0.00000000	         -0.08351300	          0.00000000	       -110.62589400	        606.96865700	         31.84860000	          0.81242500	          0.00600000	         -0.30400500	          0.00000000	         -0.34596700	          0.00000000	
          0.73700000	         19.76640800	         48.31127200	          1.08538100	          0.27837900	          0.00600000	         -0.14327900	          0.00000000	         -0.08098000	          0.00000000	       -110.43265700	        607.00485800	         32.01865800	          0.81252900	          0.00600000	         -0.30405800	          0.00000000	         -0.35291500	          0.00000000	
          0.73750000	         19.45160100	         47.37327700	          1.10735900	          0.27878300	          0.00600000	         -0.14322700	          0.00000000	         -0.07847600	          0.00000000	       -110.23594000	        607.02783900	         32.18706400	          0.81263300	          0.00600000	         -0.30411100	          0.00000000	         -0.35987800	          0.00000000	
          0.73800000	         19.13927600	         46.44424400	          1.12886200	          0.27919700	          0.00600000	         -0.14317300	          0.00000000	         -0.07600300	          0.00000000	       -110.03578600	        607.03774700	         32.35379500	          0.81273700	          0.00600000	         -0.30416400	          0.00000000	         -0.36685400	          0.00000000	
          0.73850000	         18.82944100	         45.52415900	          1.14989600	          0.27962100	          0.00600000	         -0.14311700	          0.00000000	         -0.07356100	          0.00000000	       -109.83223900	        607.03472800	         32.51883000	          0.81284100	          0.00600000	         -0.30421700	          0.00000000	         -0.37384400	          0.00000000	
          0.73900000	         18.52209900	         44.61300900	          1.17046600	          0.28005500	          0.00600000	         -0.14306000	          0.00000000	         -0.07115100	          0.00000000	       -109.62534200	        607.01892700	         32.68214700	          0.81294600	          0.00600000	         -0.30427000	          0.00000000	         -0.38084600	          0.00000000	
          0.73950000	         18.21725600	         43.71077900	          1.19057700	          0.28050000	          0.00600000	         -0.14300100	          0.00000000	         -0.06877300	          0.00000000	       -109.41513900	        606.99049200	         32.84372600	          0.81305000	          0.00600000	         -0.30432300	          0.00000000	         -0.38785800	          0.00000000	
          0.74000000	         17.91491500	         42.81745100	          1.21023400	          0.28095600	          0.00600000	         -0.14293900	          0.00000000	         -0.06642800	          0.00000000	       -109.20167200	        606.94956800	         33.00354600	          0.81315500	          0.00600000	         -0.30437600	          0.00000000	         -0.39488100	          0.00000000	
          0.74050000	         17.61508100	         41.93301000	          1.22944200	          0.28142300	          0.00600000	         -0.14287600	          0.00000000	         -0.06411700	          0.00000000	       -108.98498600	        606.89630300	         33.16158600	          0.81325900	          0.00600000	         -0.30442900	          0.00000000	         -0.40191200	          0.00000000	
          0.74100000	         17.31775500	         41.05743500	          1.24820500	          0.28190300	          0.00600000	         -0.14281100	          0.00000000	         -0.06183900	          0.00000000	       -108.76512100	        606.83084200	         33.31782900	          0.81336400	          0.00600000	         -0.30448200	          0.00000000	         -0.40895200	          0.00000000	
